# xmcd
#
# Track frame offsets: 
#        150
#        24018
#        42963
#        59213
#        73688
#        110175
#        125063
#        140125
#        158943
#        181038
#
# Disc length: 2923 seconds
#
# Revision: 5
# Processed by: cddbd v1.5.2PL0 Copyright (c) Steve Scherf et al.
# Submitted via: ExactAudioCopy v1.3
#
DISCID=960b690a
DTITLE=Alabama - Greatest Hits
DYEAR=1986
DGENRE=Country
TTITLE0=She And I
TTITLE1=Mountain Music
TTITLE2=Feels So Right
TTITLE3=Old Flame
TTITLE4=Tennessee River (Live)
TTITLE5=Love In The First Degree
TTITLE6=40 Hour Week
TTITLE7=Why Lady Why
TTITLE8=The Fans
TTITLE9=My Home's In Alabama (Live)
EXTD=
EXTT0=
EXTT1=
EXTT2=
EXTT3=
EXTT4=
EXTT5=
EXTT6=
EXTT7=
EXTT8=
EXTT9=
PLAYORDER=
